<?xml version="1.0" encoding="UTF-8" standalone="no"?>
<!-- Created with Inkscape (http://www.inkscape.org/) -->

<svg
   version="1.1"
   id="svg1"
   width="161.33333"
   height="57.333332"
   viewBox="0 0 161.33333 57.333332"
   sodipodi:docname="cc_by.pdf"
   xmlns:inkscape="http://www.inkscape.org/namespaces/inkscape"
   xmlns:sodipodi="http://sodipodi.sourceforge.net/DTD/sodipodi-0.dtd"
   xmlns="http://www.w3.org/2000/svg"
   xmlns:svg="http://www.w3.org/2000/svg">
  <defs
     id="defs1" />
  <sodipodi:namedview
     id="namedview1"
     pagecolor="#ffffff"
     bordercolor="#000000"
     borderopacity="0.25"
     inkscape:showpageshadow="2"
     inkscape:pageopacity="0.0"
     inkscape:pagecheckerboard="0"
     inkscape:deskcolor="#d1d1d1">
    <inkscape:page
       x="0"
       y="0"
       inkscape:label="1"
       id="page1"
       width="161.33333"
       height="57.333332"
       margin="0"
       bleed="0" />
  </sodipodi:namedview>
  <g
     id="g1"
     inkscape:groupmode="layer"
     inkscape:label="1">
    <path
       id="path1"
       d="m 3.64,41.993 113.354,-0.202 c 1.584,0 2.998,0.235 2.998,-3.16 L 119.853,1.302 H 0.779 V 38.77 c 0,1.674 0.162,3.223 2.861,3.223"
       style="fill:#a7b1a6;fill-opacity:1;fill-rule:nonzero;stroke:none"
       transform="matrix(1.3333333,0,0,-1.3333333,0,57.333333)" />
    <path
       id="path2"
       d="M 118.252,42.5 H 2.747 C 1.508,42.5 0.5,41.492 0.5,40.253 V 1.007 C 0.5,0.727 0.728,0.5 1.007,0.5 h 118.985 c 0.28,0 0.508,0.227 0.508,0.507 v 39.246 c 0,1.239 -1.008,2.247 -2.248,2.247 z M 2.747,41.485 h 115.505 c 0.68,0 1.232,-0.552 1.232,-1.232 0,0 0,-15.847 0,-27.275 H 36.66 C 33.634,7.507 27.804,3.792 21.113,3.792 14.42,3.792 8.592,7.504 5.567,12.978 H 1.515 c 0,11.428 0,27.275 0,27.275 0,0.68 0.553,1.232 1.232,1.232"
       style="fill:#100f0d;fill-opacity:1;fill-rule:nonzero;stroke:none"
       transform="matrix(1.3333333,0,0,-1.3333333,0,57.333333)" />
    <path
       id="path3"
       d="m 74.309,9.752 c 0.316,0 0.603,-0.027 0.865,-0.083 0.26,-0.056 0.482,-0.146 0.668,-0.273 C 76.027,9.27 76.172,9.101 76.274,8.891 76.376,8.68 76.428,8.422 76.428,8.111 76.428,7.777 76.352,7.5 76.199,7.278 76.048,7.055 75.822,6.873 75.525,6.731 75.935,6.613 76.241,6.408 76.443,6.113 76.645,5.82 76.746,5.465 76.746,5.051 76.746,4.717 76.681,4.428 76.551,4.184 76.421,3.94 76.245,3.74 76.025,3.586 75.806,3.431 75.555,3.316 75.272,3.242 74.99,3.168 74.701,3.131 74.403,3.131 H 71.187 V 9.752 Z M 74.123,7.074 c 0.26,0 0.473,0.063 0.641,0.186 0.168,0.123 0.251,0.323 0.251,0.6 0,0.155 -0.029,0.282 -0.083,0.38 -0.057,0.099 -0.131,0.176 -0.224,0.232 -0.093,0.055 -0.2,0.094 -0.32,0.115 -0.12,0.021 -0.247,0.032 -0.376,0.032 H 72.647 V 7.074 Z m 0.085,-2.81 c 0.143,0 0.278,0.013 0.409,0.042 0.129,0.028 0.244,0.075 0.344,0.138 0.099,0.066 0.178,0.154 0.236,0.265 0.061,0.111 0.089,0.254 0.089,0.427 0,0.339 -0.096,0.582 -0.288,0.727 C 74.806,6.008 74.552,6.08 74.236,6.08 H 72.647 V 4.264 h 1.561"
       style="fill:#ffffff;fill-opacity:1;fill-rule:nonzero;stroke:none"
       transform="matrix(1.3333333,0,0,-1.3333333,0,57.333333)" />
    <path
       id="path4"
       d="m 77.003,9.752 h 1.634 l 1.55,-2.615 1.541,2.615 h 1.624 L 80.894,5.672 V 3.131 h -1.46 v 2.578 l -2.431,4.043"
       style="fill:#ffffff;fill-opacity:1;fill-rule:nonzero;stroke:none"
       transform="matrix(1.3333333,0,0,-1.3333333,0,57.333333)" />
    <path
       id="path5"
       d="M 34.754,22.894 C 34.759,15.364 28.658,9.258 21.127,9.252 13.598,9.248 7.489,15.348 7.484,22.877 c 0,0.006 0,0.011 0,0.017 -0.004,7.53 6.097,13.637 13.627,13.641 7.531,0.005 13.639,-6.095 13.643,-13.625 0,-0.005 0,-0.011 0,-0.016"
       style="fill:#ffffff;fill-opacity:1;fill-rule:nonzero;stroke:none"
       transform="matrix(1.3333333,0,0,-1.3333333,0,57.333333)" />
    <path
       id="path6"
       d="m 32.203,33.999 c 3.024,-3.024 4.536,-6.726 4.536,-11.105 0,-4.38 -1.486,-8.042 -4.458,-10.988 C 29.128,8.804 25.4,7.253 21.1,7.253 16.851,7.253 13.189,8.791 10.113,11.867 7.037,14.942 5.5,18.618 5.5,22.894 c 0,4.275 1.537,7.977 4.613,11.105 2.997,3.023 6.66,4.536 10.987,4.536 4.379,0 8.08,-1.513 11.103,-4.536 z M 12.148,31.965 C 9.592,29.383 8.315,26.359 8.315,22.89 c 0,-3.468 1.265,-6.467 3.794,-8.995 2.531,-2.531 5.542,-3.795 9.037,-3.795 3.495,0 6.532,1.277 9.114,3.833 2.452,2.374 3.678,5.358 3.678,8.957 0,3.571 -1.246,6.604 -3.737,9.094 -2.49,2.49 -5.509,3.736 -9.055,3.736 -3.546,0 -6.546,-1.252 -8.998,-3.755 z m 6.727,-7.549 c -0.39,0.851 -0.975,1.277 -1.754,1.277 -1.379,0 -2.068,-0.928 -2.068,-2.784 0,-1.855 0.689,-2.782 2.068,-2.782 0.91,0 1.56,0.451 1.95,1.356 l 1.911,-1.017 c -0.911,-1.618 -2.277,-2.427 -4.099,-2.427 -1.405,0 -2.531,0.431 -3.377,1.291 -0.846,0.861 -1.269,2.05 -1.269,3.564 0,1.487 0.436,2.669 1.308,3.543 0.872,0.875 1.958,1.312 3.26,1.312 1.926,0 3.305,-0.759 4.139,-2.275 z m 8.991,0 c -0.391,0.851 -0.965,1.277 -1.72,1.277 -1.406,0 -2.11,-0.928 -2.11,-2.784 0,-1.855 0.704,-2.782 2.11,-2.782 0.912,0 1.55,0.451 1.914,1.356 l 1.954,-1.017 c -0.909,-1.618 -2.274,-2.427 -4.092,-2.427 -1.403,0 -2.527,0.431 -3.372,1.291 -0.843,0.861 -1.266,2.05 -1.266,3.564 0,1.487 0.429,2.669 1.287,3.543 0.857,0.875 1.948,1.312 3.273,1.312 1.923,0 3.3,-0.759 4.131,-2.275 l -2.109,-1.058"
       style="fill:#100f0d;fill-opacity:1;fill-rule:nonzero;stroke:none"
       transform="matrix(1.3333333,0,0,-1.3333333,0,57.333333)" />
    <path
       id="path7"
       d="m 76.768,38.022 c 5.93,0 10.738,-4.808 10.738,-10.739 0,-5.93 -4.808,-10.738 -10.738,-10.738 -5.932,0 -10.741,4.808 -10.741,10.738 0,5.931 4.809,10.739 10.741,10.739"
       style="fill:#ffffff;fill-opacity:1;fill-rule:nonzero;stroke:none"
       transform="matrix(1.3333333,0,0,-1.3333333,0,57.333333)" />
    <path
       id="path8"
       d="m 79.875,30.39 c 0,0.414 -0.336,0.749 -0.748,0.749 h -4.744 c -0.412,0 -0.748,-0.335 -0.748,-0.749 v -4.742 h 1.322 v -5.617 h 3.595 v 5.617 h 1.323 v 4.742"
       style="fill:#100f0d;fill-opacity:1;fill-rule:nonzero;stroke:none"
       transform="matrix(1.3333333,0,0,-1.3333333,0,57.333333)" />
    <path
       id="path9"
       d="m 76.754,35.008 c 0.896,0 1.623,-0.726 1.623,-1.622 0,-0.896 -0.727,-1.623 -1.623,-1.623 -0.896,0 -1.622,0.727 -1.622,1.623 0,0.896 0.726,1.622 1.622,1.622"
       style="fill:#100f0d;fill-opacity:1;fill-rule:nonzero;stroke:none"
       transform="matrix(1.3333333,0,0,-1.3333333,0,57.333333)" />
    <path
       id="path10"
       d="m 76.74,39.114 c -3.213,0 -5.931,-1.12 -8.157,-3.362 -2.283,-2.319 -3.425,-5.063 -3.425,-8.232 0,-3.169 1.142,-5.895 3.425,-8.174 2.284,-2.281 5.003,-3.42 8.157,-3.42 3.194,0 5.961,1.148 8.301,3.449 2.207,2.183 3.311,4.898 3.311,8.145 0,3.247 -1.124,5.99 -3.368,8.232 -2.246,2.242 -4.993,3.362 -8.244,3.362 z m 0.03,-2.086 c 2.63,0 4.867,-0.928 6.705,-2.783 1.857,-1.836 2.785,-4.077 2.785,-6.725 0,-2.667 -0.908,-4.88 -2.728,-6.638 -1.917,-1.894 -4.17,-2.841 -6.762,-2.841 -2.595,0 -4.83,0.937 -6.705,2.812 -1.88,1.875 -2.817,4.097 -2.817,6.667 0,2.57 0.949,4.812 2.846,6.725 1.818,1.855 4.043,2.783 6.676,2.783"
       style="fill:#100f0d;fill-opacity:1;fill-rule:nonzero;stroke:none"
       transform="matrix(1.3333333,0,0,-1.3333333,0,57.333333)" />
  </g>
</svg>
